<svg width="50" height="50" viewBox="0 0 50 50" fill="none" xmlns="http://www.w3.org/2000/svg">
<g clip-path="url(#clip0_225_225)">
<path d="M12.0748 30C11.6752 29.6004 11.0298 29.6004 10.6302 30L4.96424 35.6659C4.56465 36.0655 4.56465 36.711 4.96424 37.1106C5.16916 37.3053 5.4253 37.4077 5.69169 37.4077C5.94784 37.4077 6.21423 37.3053 6.4089 37.1106L12.0748 31.4447C12.4744 31.0451 12.4744 30.3996 12.0748 30Z" fill="white"/>
<path d="M49.7282 0.340196C49.5335 0.13528 49.2672 0.0123291 48.9803 0.0123291H31.9005C31.6239 0.0123291 31.3473 0.125037 31.1526 0.329953L20.6097 11.4364C20.5687 11.4261 20.5277 11.4261 20.4765 11.4261H10.159C9.87207 11.4261 9.58519 11.5491 9.39052 11.7643L0.261517 21.9896C-0.00487408 22.2867 -0.0765947 22.717 0.0873381 23.0859C0.251271 23.4547 0.620119 23.6904 1.01971 23.6904H10.8967L25.1178 39.0488V48.9667C25.1178 49.3766 25.3637 49.7557 25.7531 49.9094C25.876 49.9606 26.0092 49.9913 26.1424 49.9913C26.4088 49.9913 26.6752 49.8889 26.8698 49.6942L37.1874 39.3767C37.382 39.182 37.4845 38.9259 37.4845 38.6492V28.7928L48.6012 17.7273C48.7754 17.5531 48.8881 17.3175 48.8983 17.0716L49.9946 1.08814C50.0253 0.821747 49.9229 0.545112 49.7282 0.340196ZM3.31476 21.6515L10.62 13.4753H18.6732L10.9069 21.6515H3.31476ZM12.7614 22.6965L32.3411 2.06149H46.3778L27.2899 20.1043L18.5298 28.926L12.7614 22.6965ZM35.4456 38.2394L27.1772 46.5078V39.0898L35.4456 30.8522V38.2394ZM46.9004 16.5593L26.1731 37.1943L19.913 30.4219L28.7243 21.5592L47.7918 3.54713L46.9004 16.5593Z" fill="white"/>
<path d="M17.4744 36.8442L11.8085 42.5102C11.4089 42.9098 11.4089 43.5552 11.8085 43.9548C12.0134 44.1495 12.2695 44.252 12.5359 44.252C12.8023 44.252 13.0585 44.1597 13.2531 43.9548L18.9191 38.2889C19.3186 37.8893 19.3186 37.2438 18.9191 36.8442C18.5195 36.4447 17.874 36.4447 17.4744 36.8442Z" fill="white"/>
<path d="M34.5867 15.5341L37.7205 12.5724C38.1418 13.4553 38.0137 14.4967 37.3246 15.148C37.0327 15.4239 37.0421 15.9079 37.3455 16.229C37.649 16.5501 38.1317 16.5867 38.4236 16.3108C39.6999 15.1046 39.8224 13.095 38.8154 11.5376L39.3968 10.9881C39.6887 10.7122 39.6794 10.2282 39.3759 9.90713C39.0724 9.58602 38.5897 9.54937 38.2978 9.82526L37.7164 10.3748C36.2183 9.28149 34.205 9.29036 32.9287 10.4966C31.6523 11.7028 31.5299 13.7124 32.5369 15.2698L29.4031 18.2315C28.9818 17.3485 29.1099 16.3071 29.799 15.6559C30.0909 15.38 30.0815 14.896 29.7781 14.5749C29.4746 14.2538 28.9919 14.2171 28.7 14.493C27.4237 15.6992 27.3012 17.7088 28.3082 19.2662L27.7265 19.816C27.4346 20.0919 27.4439 20.5759 27.7474 20.897C28.0509 21.2181 28.5335 21.2548 28.8255 20.9789L29.4072 20.4291C30.9053 21.5224 32.9186 21.5135 34.1949 20.3073C35.4713 19.101 35.5936 17.0914 34.5867 15.5341ZM34.0276 11.6594C34.7167 11.0082 35.7637 10.939 36.6215 11.4095L33.6318 14.235C33.2104 13.3521 33.3385 12.3107 34.0276 11.6594ZM30.5021 19.3943L33.4918 16.5688C33.9131 17.4517 33.785 18.4932 33.096 19.1444C32.4069 19.7957 31.3599 19.8648 30.5021 19.3943Z" fill="white"/>
</g>
<defs>
<clipPath id="clip0_225_225">
<rect width="50" height="50" fill="white"/>
</clipPath>
</defs>
</svg>
